<?xml version="1.0" standalone="no"?>
<!DOCTYPE svg PUBLIC "-//W3C//DTD SVG 20010904//EN"
 "http://www.w3.org/TR/2001/REC-SVG-20010904/DTD/svg10.dtd">
<svg version="1.0" xmlns="http://www.w3.org/2000/svg"
 width="300.000000pt" height="91.000000pt" viewBox="0 0 300.000000 91.000000"
 preserveAspectRatio="xMidYMid meet">
<metadata>
Created by potrace 1.10, written by Peter Selinger 2001-2011
</metadata>
<g transform="translate(0.000000,91.000000) scale(0.050000,-0.050000)"
fill="#dedede" stroke="none">
<path d="M3058 1703 c-130 -43 -300 -151 -418 -266 -103 -100 -96 -110 31 -45
110 56 191 53 302 -12 63 -36 64 -36 160 13 112 58 229 54 341 -13 66 -39 67
-39 131 0 86 52 256 52 370 1 102 -47 108 -30 20 51 -290 269 -639 370 -937
271z"/>
<path d="M5673 1199 c-68 -54 -68 -124 0 -178 68 -53 98 -52 158 8 114 114
-31 270 -158 170z m136 -30 c36 -36 39 -66 11 -109 -21 -32 -23 -27 -28 70 -3
53 -98 57 -108 4 -12 -61 17 -113 35 -64 14 38 15 38 39 -5 20 -39 18 -45 -13
-45 -49 0 -85 38 -85 90 0 84 88 119 149 59z"/>
<path d="M434 1156 c-198 -53 -254 -182 -254 -591 0 -333 8 -365 90 -365 70 0
90 40 90 185 0 129 2 135 39 116 81 -44 249 -25 335 37 316 229 79 718 -300
618z m189 -178 c111 -59 108 -251 -4 -309 -84 -43 -135 -36 -201 29 -142 143
28 375 205 280z"/>
<path d="M1222 1159 c-296 -66 -361 -460 -104 -634 75 -50 218 -61 314 -24 31
12 60 13 66 3 20 -30 70 -40 107 -21 42 22 52 407 13 483 -78 150 -238 229
-396 193z m184 -199 c160 -126 6 -381 -178 -293 -166 79 -111 333 72 333 30 0
78 -18 106 -40z"/>
<path d="M1773 1143 c-39 -42 -46 -285 -12 -407 55 -197 299 -321 462 -234 59
31 67 9 23 -66 -49 -86 -161 -119 -230 -69 -25 18 -66 47 -90 65 -87 62 -168
-46 -100 -134 126 -166 416 -158 548 15 l56 74 6 375 c7 411 -6 457 -116 398
-43 -23 -45 -32 -40 -205 6 -218 -80 -336 -221 -305 -106 24 -139 93 -139 291
0 221 -58 301 -147 202z"/>
<path d="M2571 1149 c-36 -37 -44 -314 -11 -428 88 -309 544 -319 659 -15 55
147 17 474 -56 474 -76 0 -103 -64 -103 -248 0 -216 -39 -280 -170 -280 -131
0 -170 64 -170 278 0 225 -58 310 -149 219z"/>
<path d="M3375 1158 c-49 -28 -51 -389 -2 -491 91 -192 365 -251 528 -113 189
159 198 723 10 598 -35 -23 -42 -54 -51 -216 -13 -249 -78 -326 -231 -276 -98
33 -137 130 -123 305 15 174 -36 249 -131 193z"/>
<path d="M4402 1160 c-85 -20 -159 -75 -217 -160 -65 -95 -68 -486 -5 -520 91
-49 120 2 120 212 0 221 51 308 180 308 129 0 180 -87 180 -308 0 -209 29
-261 118 -213 54 29 59 50 48 241 -14 270 -84 400 -232 430 -35 7 -77 16 -94
19 -16 4 -60 -1 -98 -9z"/>
<path d="M5164 1156 c-243 -52 -340 -370 -170 -558 101 -111 276 -149 411 -89
51 22 44 -16 -17 -87 -64 -77 -198 -88 -258 -22 -41 45 -110 52 -146 16 -118
-118 193 -289 390 -215 170 65 226 180 226 469 0 384 -147 548 -436 486z m175
-185 c64 -34 81 -67 80 -158 -1 -156 -170 -225 -281 -115 -150 151 11 371 201
273z"/>
</g>
</svg>
